<svg width="16" height="17" viewBox="0 0 16 17" fill="none" xmlns="http://www.w3.org/2000/svg">
<path d="M3.70659 6.14278C3.61435 6.04727 3.504 5.97109 3.382 5.91868C3.25999 5.86627 3.12877 5.83869 2.99599 5.83753C2.86321 5.83638 2.73153 5.86168 2.60864 5.91196C2.48574 5.96224 2.37409 6.03649 2.2802 6.13039C2.18631 6.22428 2.11205 6.33593 2.06177 6.45883C2.01149 6.58172 1.98619 6.7134 1.98734 6.84618C1.9885 6.97896 2.01608 7.11018 2.06849 7.23219C2.1209 7.35419 2.19708 7.46453 2.29259 7.55678L7.29259 12.5568C7.48012 12.7443 7.73443 12.8496 7.99959 12.8496C8.26476 12.8496 8.51906 12.7443 8.70659 12.5568L13.7066 7.55678C13.8888 7.36818 13.9895 7.11558 13.9873 6.85338C13.985 6.59118 13.8798 6.34037 13.6944 6.15496C13.509 5.96956 13.2582 5.86439 12.996 5.86211C12.7338 5.85983 12.4812 5.96062 12.2926 6.14278L7.99959 10.4358L3.70659 6.14278Z" fill="black"/>
</svg>
