<svg width="16" height="17" viewBox="0 0 16 17" fill="none" xmlns="http://www.w3.org/2000/svg">
<path d="M3.70659 6.14276C3.61435 6.04725 3.504 5.97107 3.382 5.91866C3.25999 5.86625 3.12877 5.83867 2.99599 5.83751C2.86321 5.83636 2.73153 5.86166 2.60864 5.91194C2.48574 5.96222 2.37409 6.03648 2.2802 6.13037C2.18631 6.22426 2.11205 6.33591 2.06177 6.45881C2.01149 6.58171 1.98619 6.71339 1.98734 6.84616C1.9885 6.97894 2.01608 7.11016 2.06849 7.23217C2.1209 7.35417 2.19708 7.46452 2.29259 7.55676L7.29259 12.5568C7.48012 12.7442 7.73443 12.8495 7.99959 12.8495C8.26476 12.8495 8.51906 12.7442 8.70659 12.5568L13.7066 7.55676C13.8888 7.36816 13.9895 7.11556 13.9873 6.85336C13.985 6.59116 13.8798 6.34035 13.6944 6.15494C13.509 5.96954 13.2582 5.86437 12.996 5.86209C12.7338 5.85981 12.4812 5.96061 12.2926 6.14276L7.99959 10.4358L3.70659 6.14276Z" fill="white"/>
</svg>
