<svg width="24" height="25" viewBox="0 0 24 25" fill="none" xmlns="http://www.w3.org/2000/svg">
<path d="M4.67813 3.42323C4.35 3.55448 4.15313 3.69042 3.91875 3.94823C3.57188 4.33729 3.52969 4.51073 3.32344 6.40448C3.225 7.3326 3.14063 8.10604 3.14063 8.12479C3.14063 8.13885 2.73281 8.16229 2.23594 8.17167C1.34063 8.18573 1.33594 8.18573 1.03125 8.33104C0.660938 8.50448 0.328125 8.8326 0.15 9.18885L0.0234375 9.45135V15.2639V21.0764L0.159375 21.3576C0.3375 21.7139 0.651563 22.0279 1.00781 22.206L1.28906 22.342H10.2891H19.2891L19.5703 22.192C19.9313 22.0045 20.2594 21.667 20.4234 21.3107C20.5547 21.0295 20.5547 21.0201 20.5688 19.9373C20.5828 18.967 20.5922 18.8451 20.6578 18.8685C20.8172 18.9295 21.6797 18.9014 21.8906 18.8264C22.5703 18.5873 23.0016 18.067 23.1141 17.3639C23.1844 16.9092 24 6.97167 24 6.55917C24 6.36698 23.9672 6.10448 23.9297 5.97792C23.775 5.4576 23.2734 4.9701 22.7344 4.81073C22.4531 4.73104 5.89688 3.33417 5.25 3.33417C5.025 3.33885 4.81875 3.37167 4.67813 3.42323ZM13.9781 5.02167C18.6188 5.41073 22.4625 5.74823 22.5141 5.77635C22.6641 5.85604 22.875 6.0576 22.95 6.20292C22.9875 6.27323 23.0156 6.44198 23.0156 6.57792C23.0156 6.96229 22.1672 17.1154 22.1203 17.3123C22.0641 17.5373 21.8906 17.7389 21.6703 17.842C21.4922 17.9264 21.0047 17.9498 20.7094 17.8842L20.5781 17.8607L20.5688 13.6795L20.5547 9.49823L20.4047 9.18885C20.2219 8.81385 19.8844 8.48573 19.5094 8.31229L19.2422 8.18573L11.6813 8.17167L4.11563 8.16229L4.14375 7.98417C4.15781 7.89042 4.2375 7.18729 4.3125 6.42792C4.39219 5.66854 4.48125 4.97479 4.50469 4.89042C4.57031 4.68885 4.76719 4.46385 4.94531 4.38417C5.02031 4.35135 5.18906 4.32323 5.31563 4.31854C5.44219 4.31854 9.3375 4.63729 13.9781 5.02167ZM19.125 9.23573C19.2141 9.2826 19.35 9.39979 19.4297 9.49354C19.5703 9.66698 19.5703 9.68104 19.5844 10.2998L19.6031 10.9279H10.2609H0.923438L0.946875 10.3514C0.960938 9.9576 0.99375 9.73729 1.04531 9.63885C1.13438 9.46542 1.34531 9.25917 1.5 9.19823C1.575 9.1701 4.65938 9.15135 10.2891 9.15135C18.6516 9.14667 18.9703 9.15135 19.125 9.23573ZM19.5938 12.8498V13.7873H10.2656H0.9375V12.8498V11.9123H10.2656H19.5938V12.8498ZM19.5938 17.7435C19.5938 19.731 19.575 20.7623 19.5422 20.8514C19.5188 20.9217 19.4391 21.0435 19.3688 21.1139C19.0969 21.3998 19.7719 21.381 10.2844 21.381H1.58438L1.39688 21.2779C1.28438 21.2123 1.15781 21.0857 1.0875 20.9592L0.960938 20.7482L0.946875 17.7576L0.932813 14.7717H10.2656H19.5938V17.7435Z" fill="#3D5165"/>
<path d="M12.8344 16.267L12.6797 16.4029V18.0951V19.7873L12.8109 19.9139L12.9375 20.0451L15.3422 20.0592C17.0859 20.0685 17.775 20.0545 17.8734 20.017C18.1406 19.9045 18.1406 19.9139 18.1406 18.1092C18.1406 17.0639 18.1219 16.4217 18.0938 16.3607C17.9719 16.1357 17.9344 16.131 15.3797 16.131H12.9844L12.8344 16.267ZM17.1562 18.0998V19.0842H15.3984H13.6406V18.0998V17.1154H15.3984H17.1562V18.0998Z" fill="#3D5165"/>
</svg>
