<svg width="24" height="25" viewBox="0 0 24 25" fill="none" xmlns="http://www.w3.org/2000/svg">
<g clip-path="url(#clip0_1101_1827)">
<path d="M11.4655 1.64655C9.50883 1.87998 8.03275 2.3331 6.63906 3.12949C3.27498 5.05182 1.13982 8.42277 0.830873 12.3155C0.762218 13.1188 0.817142 14.4301 0.933855 15.1235C1.76458 19.9568 5.53372 23.7534 10.3601 24.6184C11.4792 24.8107 13.2436 24.8107 14.3627 24.6116C18.6536 23.8495 22.0726 20.8493 23.4045 16.6819C23.6654 15.8649 23.892 14.6086 23.892 13.9632C23.892 13.5375 23.8783 13.4826 23.7135 13.3522C23.4801 13.1737 23.2741 13.1668 23.0475 13.3453C22.8553 13.4964 22.8553 13.517 22.7249 14.5811C22.0864 19.9911 16.9991 24.1172 11.5479 23.6435C5.75342 23.1355 1.49682 18.1786 1.92935 12.4322C2.12158 9.87139 3.13767 7.66757 4.97762 5.82076C6.17221 4.6193 7.40113 3.8435 8.98705 3.29426C10.1405 2.8892 11.0467 2.74503 12.358 2.74503C13.2505 2.74503 13.6556 2.77935 14.2597 2.89607C15.4406 3.12949 16.7862 3.63754 17.7131 4.20051L17.919 4.33095L17.3698 5.00377C17.0677 5.36764 16.8206 5.69718 16.8206 5.73151C16.8206 5.76583 16.9029 5.7727 17.0128 5.75897C17.1158 5.73837 17.8641 5.66285 18.6742 5.58047C19.4844 5.50495 20.1572 5.42943 20.1709 5.4157C20.2052 5.38137 19.9169 2.42921 19.8551 2.20265C19.807 2.01042 19.7933 2.02415 19.2235 2.7313C18.688 3.40411 18.633 3.45217 18.5026 3.36292C17.3904 2.64204 15.7358 2.01729 14.2735 1.77699C13.635 1.66715 11.9323 1.59163 11.4655 1.64655Z" fill="#3D5165"/>
<path d="M9.32307 7.23504C9.22009 7.29683 7.13985 10.2764 6.94762 10.6472C6.88583 10.757 6.86523 11.9104 6.86523 14.842C6.86523 18.7278 6.8721 18.8995 6.99568 19.0505L7.12612 19.2153L12.1997 19.2359C14.9871 19.2428 17.3351 19.2359 17.4243 19.2153C17.5067 19.1947 17.6372 19.1192 17.7127 19.0437C17.8431 18.9132 17.85 18.7965 17.85 14.8214V10.7433L17.39 10.0705C15.8178 7.74996 15.4951 7.29683 15.3784 7.23504C15.2068 7.14579 9.48098 7.14579 9.32307 7.23504ZM15.5157 9.30155C15.9002 9.87139 16.2023 10.3451 16.1885 10.3657C16.1679 10.3794 14.4241 10.3863 12.3096 10.3794L8.47175 10.3588L9.18576 9.30842L9.90664 8.26487H12.3576H14.8155L15.5157 9.30155ZM16.7515 14.8214V18.1511H12.3576H7.96371V14.8214V11.4916H12.3576H16.7515V14.8214Z" fill="#3D5165"/>
</g>
<defs>
<clipPath id="clip0_1101_1827">
<rect width="24" height="24" fill="white" transform="translate(0 0.849792)"/>
</clipPath>
</defs>
</svg>
