<svg width="25" height="25" viewBox="0 0 25 25" fill="none" xmlns="http://www.w3.org/2000/svg">
<path d="M3.00707 4.54772C2.44298 4.60518 1.95201 4.80626 1.51588 5.16405C1.05887 5.53488 0.732426 6.04152 0.570511 6.63172L0.5 6.88504L0.5 12.8524L0.5 18.8197L0.570511 19.073C0.883894 20.2143 1.85016 21.0421 2.98356 21.1518C3.09586 21.1623 7.43099 21.1701 12.6175 21.1675C21.3844 21.1649 22.0608 21.1623 22.254 21.1205C22.5543 21.0578 22.6928 21.0082 22.9591 20.8776C23.2568 20.7287 23.4814 20.5616 23.7321 20.3031C24.0742 19.9479 24.2962 19.5588 24.4294 19.073L24.4999 18.8197V12.8916C24.4999 6.48809 24.5078 6.82236 24.3615 6.41497C24.0325 5.48787 23.2777 4.81671 22.3062 4.58951L22.0712 4.53467L12.6436 4.53205C7.45711 4.52944 3.12197 4.53728 3.00707 4.54772ZM8.7916 7.30289V8.22998H9.71869H10.6458V7.30289V6.37579L16.2945 6.38102L21.9406 6.38885L22.0895 6.44892C22.2854 6.52987 22.4812 6.71268 22.5726 6.91116L22.6457 7.06785L22.6536 9.49657L22.6588 11.9253L20.0682 11.9227C18.6423 11.9201 17.3966 11.9227 17.2973 11.9305L17.1224 11.9462L17.1276 12.855L17.1354 13.7664H19.8984H22.6588L22.6536 16.203L22.6457 18.6369L22.5596 18.8119C22.4264 19.0861 22.1966 19.2532 21.8858 19.3028C21.7892 19.3185 19.6085 19.329 16.1901 19.329H10.6458V17.4748V15.6206L9.72652 15.6258L8.80465 15.6337L8.79682 17.4826L8.7916 19.3316L5.92414 19.3237C3.24994 19.3159 3.05146 19.3133 2.94178 19.2689C2.7668 19.201 2.584 19.0548 2.49521 18.9163C2.33068 18.6552 2.34113 19.0861 2.34635 12.7975L2.35418 7.06785L2.44036 6.89287C2.56833 6.62911 2.79031 6.45936 3.08019 6.40452C3.14025 6.39146 4.45124 6.38102 5.99204 6.3784L8.7916 6.37579V7.30289Z" fill="#C64034"/>
<path d="M5.56617 8.26915C4.27869 8.51202 3.33854 9.5723 3.2628 10.8702C3.20274 11.941 3.82167 12.9934 4.80883 13.4844C5.21361 13.6881 5.574 13.7664 6.09108 13.7664H6.46976L6.25039 14.0276C5.96051 14.3697 5.75942 14.6752 5.56356 15.067C5.33113 15.524 5.08304 16.3153 5.15094 16.3753C5.16399 16.3858 5.5505 16.4641 6.01013 16.5451C6.46976 16.6286 6.86671 16.7018 6.89021 16.7096C6.92416 16.7174 6.93983 16.6992 6.95289 16.6469C7.11219 15.9235 7.54832 15.2498 8.19597 14.7248C8.5407 14.4454 8.83319 14.2652 9.30065 14.0354L9.70805 13.8369L10.0841 14.025C11.3638 14.6622 12.2412 15.5866 12.471 16.5399C12.4945 16.6365 12.5181 16.7174 12.5259 16.7174C12.5677 16.7174 14.3069 16.3806 14.3174 16.3701C14.3357 16.3518 14.2443 15.9732 14.1581 15.712C13.9674 15.127 13.4373 14.2522 13.0508 13.8865C13.0064 13.8421 12.9698 13.8004 12.9698 13.7873C12.9698 13.7769 13.1396 13.7664 13.3459 13.7664C13.7716 13.7664 14.0458 13.7246 14.3592 13.6097C15.8791 13.0535 16.6077 11.3351 15.947 9.86218C15.5291 8.92987 14.5759 8.28482 13.5444 8.23781C12.8758 8.20909 12.2256 8.39711 11.6119 8.8019C11.0216 9.18841 10.3035 9.95881 9.85429 10.69C9.79423 10.7867 9.73939 10.8676 9.73155 10.8676C9.72372 10.8676 9.6297 10.737 9.52524 10.5777C9.13351 9.9797 8.48847 9.26675 8.05495 8.94554C7.64233 8.6426 7.14353 8.40495 6.71002 8.30571C6.39663 8.2352 5.8456 8.21692 5.56617 8.26915ZM6.43581 10.1703C6.83015 10.3323 7.32372 10.7423 7.72329 11.2463C7.92176 11.4944 8.13591 11.8339 8.13852 11.8992C8.13852 11.9357 5.88216 11.9279 5.77509 11.8939C5.3912 11.766 5.15094 11.4709 5.11699 11.0844C5.08042 10.6483 5.32068 10.2774 5.73853 10.1259C5.90567 10.0633 6.22427 10.0842 6.43581 10.1703ZM13.8421 10.186C14.1659 10.3453 14.3357 10.63 14.3383 11.0113C14.3383 11.1862 14.3252 11.2489 14.2626 11.3847C14.1711 11.591 13.9701 11.7817 13.7585 11.8626C13.6123 11.9175 13.5809 11.9201 12.4554 11.9253C11.8182 11.9279 11.2985 11.9253 11.2985 11.9201C11.2985 11.9148 11.3324 11.8443 11.3742 11.7608C11.6249 11.2698 12.3901 10.4837 12.8497 10.2487C13.2258 10.0554 13.5392 10.0372 13.8421 10.186Z" fill="#C64034"/>
</svg>
