<svg xmlns="http://www.w3.org/2000/svg" viewBox="0 0 20 20" fill="none" class="components-Svg-_style_icon"><path d="M18.8 5h-2.6a3.1 3.1 0 0 0-3-2.5c-1.6 0-2.8 1-3.1 2.5H1.3v1.3H10a3.1 3.1 0 0 0 3 2.5c1.5 0 2.8-1.1 3-2.6h2.6V5ZM13 7.5c-1 0-1.8-.8-1.8-1.9 0-1 .8-1.8 1.8-1.8s1.9.8 1.9 1.8-.8 1.9-1.9 1.9ZM1.3 15h2.5a3.1 3.1 0 0 0 3 2.5c1.6 0 2.8-1 3.1-2.5h8.8v-1.3H10a3.1 3.1 0 0 0-3-2.4c-1.5 0-2.8 1-3 2.4H1.2V15Zm5.6-2.5c1 0 1.8.8 1.8 1.9 0 1-.8 1.8-1.8 1.8S5 15.4 5 14.4s.8-1.9 1.9-1.9Z" fill="currentColor"></path></svg>